<svg xmlns="http://www.w3.org/2000/svg" viewBox="0 0 1440 320"><path fill="#00cba9" fill-opacity="0.4" d="M0,0L17.1,10.7C34.3,21,69,43,103,53.3C137.1,64,171,64,206,106.7C240,149,274,235,309,240C342.9,245,377,171,411,133.3C445.7,96,480,96,514,90.7C548.6,85,583,75,617,96C651.4,117,686,171,720,170.7C754.3,171,789,117,823,101.3C857.1,85,891,107,926,122.7C960,139,994,149,1029,133.3C1062.9,117,1097,75,1131,96C1165.7,117,1200,203,1234,202.7C1268.6,203,1303,117,1337,112C1371.4,107,1406,181,1423,218.7L1440,256L1440,0L1422.9,0C1405.7,0,1371,0,1337,0C1302.9,0,1269,0,1234,0C1200,0,1166,0,1131,0C1097.1,0,1063,0,1029,0C994.3,0,960,0,926,0C891.4,0,857,0,823,0C788.6,0,754,0,720,0C685.7,0,651,0,617,0C582.9,0,549,0,514,0C480,0,446,0,411,0C377.1,0,343,0,309,0C274.3,0,240,0,206,0C171.4,0,137,0,103,0C68.6,0,34,0,17,0L0,0Z"></path></svg>