<svg xmlns="http://www.w3.org/2000/svg" viewBox="0 0 1440 320">
  <path fill="#00cba9" fill-opacity="0.4" d="M0,64L18.5,96C36.9,128,74,192,111,186.7C147.7,181,185,107,222,85.3C258.5,64,295,96,332,138.7C369.2,181,406,235,443,224C480,213,517,139,554,117.3C590.8,96,628,128,665,138.7C701.5,149,738,139,775,122.7C812.3,107,849,85,886,96C923.1,107,960,149,997,149.3C1033.8,149,1071,107,1108,117.3C1144.6,128,1182,192,1218,192C1255.4,192,1292,128,1329,90.7C1366.2,53,1403,43,1422,37.3L1440,32L1440,320L1421.5,320C1403.1,320,1366,320,1329,320C1292.3,320,1255,320,1218,320C1181.5,320,1145,320,1108,320C1070.8,320,1034,320,997,320C960,320,923,320,886,320C849.2,320,812,320,775,320C738.5,320,702,320,665,320C627.7,320,591,320,554,320C516.9,320,480,320,443,320C406.2,320,369,320,332,320C295.4,320,258,320,222,320C184.6,320,148,320,111,320C73.8,320,37,320,18,320L0,320Z"></path>
</svg>
