<svg id="visual" viewBox="0 0 900 600" width="900" height="600" xmlns="http://www.w3.org/2000/svg" xmlns:xlink="http://www.w3.org/1999/xlink" version="1.1"><rect x="0" y="0" width="900" height="600" fill="#001122"></rect><path d="M0 181L12.5 187.3C25 193.7 50 206.3 75 239C100 271.7 125 324.3 150 336.7C175 349 200 321 225 317.7C250 314.3 275 335.7 300 325.7C325 315.7 350 274.3 375 258.7C400 243 425 253 450 265.2C475 277.3 500 291.7 525 284.8C550 278 575 250 600 247C625 244 650 266 675 286.8C700 307.7 725 327.3 750 323.2C775 319 800 291 825 264.7C850 238.3 875 213.7 887.5 201.3L900 189L900 601L887.5 601C875 601 850 601 825 601C800 601 775 601 750 601C725 601 700 601 675 601C650 601 625 601 600 601C575 601 550 601 525 601C500 601 475 601 450 601C425 601 400 601 375 601C350 601 325 601 300 601C275 601 250 601 225 601C200 601 175 601 150 601C125 601 100 601 75 601C50 601 25 601 12.5 601L0 601Z" fill="#00cba9"></path><path d="M0 391L12.5 386.3C25 381.7 50 372.3 75 356.5C100 340.7 125 318.3 150 319.3C175 320.3 200 344.7 225 367.8C250 391 275 413 300 422.3C325 431.7 350 428.3 375 429.3C400 430.3 425 435.7 450 430.8C475 426 500 411 525 386.7C550 362.3 575 328.7 600 329.5C625 330.3 650 365.7 675 366C700 366.3 725 331.7 750 312.3C775 293 800 289 825 312.3C850 335.7 875 386.3 887.5 411.7L900 437L900 601L887.5 601C875 601 850 601 825 601C800 601 775 601 750 601C725 601 700 601 675 601C650 601 625 601 600 601C575 601 550 601 525 601C500 601 475 601 450 601C425 601 400 601 375 601C350 601 325 601 300 601C275 601 250 601 225 601C200 601 175 601 150 601C125 601 100 601 75 601C50 601 25 601 12.5 601L0 601Z" fill="#009c98"></path><path d="M0 503L12.5 502.3C25 501.7 50 500.3 75 498.7C100 497 125 495 150 489.7C175 484.3 200 475.7 225 468C250 460.3 275 453.7 300 458.5C325 463.3 350 479.7 375 472.3C400 465 425 434 450 420.8C475 407.7 500 412.3 525 411.8C550 411.3 575 405.7 600 406C625 406.3 650 412.7 675 421C700 429.3 725 439.7 750 450.3C775 461 800 472 825 479.5C850 487 875 491 887.5 493L900 495L900 601L887.5 601C875 601 850 601 825 601C800 601 775 601 750 601C725 601 700 601 675 601C650 601 625 601 600 601C575 601 550 601 525 601C500 601 475 601 450 601C425 601 400 601 375 601C350 601 325 601 300 601C275 601 250 601 225 601C200 601 175 601 150 601C125 601 100 601 75 601C50 601 25 601 12.5 601L0 601Z" fill="#0c6f79"></path></svg>
