<svg id="visual" viewBox="0 0 960 540" width="960" height="540" xmlns="http://www.w3.org/2000/svg" xmlns:xlink="http://www.w3.org/1999/xlink" version="1.1"><rect x="0" y="0" width="960" height="540" fill="#e1e1e1"></rect><path d="M0 235L14.5 238.7C29 242.3 58 249.7 87.2 254C116.3 258.3 145.7 259.7 174.8 267.5C204 275.3 233 289.7 262 298.8C291 308 320 312 349 311.3C378 310.7 407 305.3 436.2 294.8C465.3 284.3 494.7 268.7 523.8 268.7C553 268.7 582 284.3 611 284.2C640 284 669 268 698 262.8C727 257.7 756 263.3 785.2 263C814.3 262.7 843.7 256.3 872.8 258.5C902 260.7 931 271.3 945.5 276.7L960 282L960 541L945.5 541C931 541 902 541 872.8 541C843.7 541 814.3 541 785.2 541C756 541 727 541 698 541C669 541 640 541 611 541C582 541 553 541 523.8 541C494.7 541 465.3 541 436.2 541C407 541 378 541 349 541C320 541 291 541 262 541C233 541 204 541 174.8 541C145.7 541 116.3 541 87.2 541C58 541 29 541 14.5 541L0 541Z" fill="#00cba9"></path><path d="M0 317L14.5 329C29 341 58 365 87.2 373.2C116.3 381.3 145.7 373.7 174.8 360.8C204 348 233 330 262 321.7C291 313.3 320 314.7 349 325.8C378 337 407 358 436.2 357.2C465.3 356.3 494.7 333.7 523.8 320.8C553 308 582 305 611 317C640 329 669 356 698 362.3C727 368.7 756 354.3 785.2 342.5C814.3 330.7 843.7 321.3 872.8 316.7C902 312 931 312 945.5 312L960 312L960 541L945.5 541C931 541 902 541 872.8 541C843.7 541 814.3 541 785.2 541C756 541 727 541 698 541C669 541 640 541 611 541C582 541 553 541 523.8 541C494.7 541 465.3 541 436.2 541C407 541 378 541 349 541C320 541 291 541 262 541C233 541 204 541 174.8 541C145.7 541 116.3 541 87.2 541C58 541 29 541 14.5 541L0 541Z" fill="#00aca0"></path><path d="M0 410L14.5 404.7C29 399.3 58 388.7 87.2 393C116.3 397.3 145.7 416.7 174.8 428.8C204 441 233 446 262 436C291 426 320 401 349 397C378 393 407 410 436.2 412C465.3 414 494.7 401 523.8 394.5C553 388 582 388 611 393.2C640 398.3 669 408.7 698 407.3C727 406 756 393 785.2 390.8C814.3 388.7 843.7 397.3 872.8 401.7C902 406 931 406 945.5 406L960 406L960 541L945.5 541C931 541 902 541 872.8 541C843.7 541 814.3 541 785.2 541C756 541 727 541 698 541C669 541 640 541 611 541C582 541 553 541 523.8 541C494.7 541 465.3 541 436.2 541C407 541 378 541 349 541C320 541 291 541 262 541C233 541 204 541 174.8 541C145.7 541 116.3 541 87.2 541C58 541 29 541 14.5 541L0 541Z" fill="#008d8f"></path><path d="M0 463L14.5 469.8C29 476.7 58 490.3 87.2 493.7C116.3 497 145.7 490 174.8 491.8C204 493.7 233 504.3 262 510.3C291 516.3 320 517.7 349 504.3C378 491 407 463 436.2 457C465.3 451 494.7 467 523.8 468.7C553 470.3 582 457.7 611 459.3C640 461 669 477 698 487C727 497 756 501 785.2 494.5C814.3 488 843.7 471 872.8 463.2C902 455.3 931 456.7 945.5 457.3L960 458L960 541L945.5 541C931 541 902 541 872.8 541C843.7 541 814.3 541 785.2 541C756 541 727 541 698 541C669 541 640 541 611 541C582 541 553 541 523.8 541C494.7 541 465.3 541 436.2 541C407 541 378 541 349 541C320 541 291 541 262 541C233 541 204 541 174.8 541C145.7 541 116.3 541 87.2 541C58 541 29 541 14.5 541L0 541Z" fill="#0c6f79"></path></svg>